<?xml version="1.0" encoding="UTF-8" standalone="no"?>
<svg
   viewBox="0 0 960 960"
   version="1.1"
   id="svg2047"
   sodipodi:docname="logo_bg.svg"
   inkscape:version="1.3.2 (1:1.3.2+202311252150+091e20ef0f)"
   width="960"
   height="960"
   inkscape:export-filename="bg"
   inkscape:export-xdpi="189.42822"
   inkscape:export-ydpi="189.42822"
   xmlns:inkscape="http://www.inkscape.org/namespaces/inkscape"
   xmlns:sodipodi="http://sodipodi.sourceforge.net/DTD/sodipodi-0.dtd"
   xmlns="http://www.w3.org/2000/svg"
   xmlns:svg="http://www.w3.org/2000/svg">
  <defs
     id="defs2051">
    <inkscape:path-effect
       center_point="181.81206,137.28978"
       end_point="181.81206,154.24085"
       start_point="181.81206,120.33872"
       effect="mirror_symmetry"
       id="path-effect4"
       is_visible="true"
       lpeversion="1.2"
       lpesatellites="#path4"
       mode="free"
       discard_orig_path="false"
       fuse_paths="false"
       oposite_fuse="false"
       split_items="true"
       split_open="false"
       link_styles="false" />
    <inkscape:path-effect
       effect="mirror_symmetry"
       start_point="180.3715,125.82156"
       end_point="180.3715,159.72369"
       center_point="180.3715,142.77263"
       id="path-effect3"
       is_visible="true"
       lpeversion="1.2"
       lpesatellites=""
       mode="free"
       discard_orig_path="true"
       fuse_paths="false"
       oposite_fuse="false"
       split_items="false"
       split_open="false"
       link_styles="false" />
    <inkscape:path-effect
       effect="mirror_symmetry"
       start_point="180.3715,125.82156"
       end_point="180.3715,159.72369"
       center_point="180.3715,142.77263"
       id="path-effect1"
       is_visible="true"
       lpeversion="1.2"
       lpesatellites=""
       mode="free"
       discard_orig_path="false"
       fuse_paths="false"
       oposite_fuse="false"
       split_items="false"
       split_open="false"
       link_styles="false" />
  </defs>
  <sodipodi:namedview
     id="namedview2049"
     pagecolor="#000000"
     bordercolor="#000000"
     borderopacity="0.80784314"
     inkscape:showpageshadow="2"
     inkscape:pageopacity="0"
     inkscape:pagecheckerboard="true"
     inkscape:deskcolor="#abd1d1"
     showgrid="true"
     inkscape:zoom="1"
     inkscape:cx="466"
     inkscape:cy="422"
     inkscape:window-width="1720"
     inkscape:window-height="1391"
     inkscape:window-x="1720"
     inkscape:window-y="21"
     inkscape:window-maximized="0"
     inkscape:current-layer="layer1"
     showguides="true">
    <sodipodi:guide
       position="478.56787,325.41681"
       orientation="1,0"
       id="guide3"
       inkscape:locked="false" />
    <sodipodi:guide
       position="86.363403,306.17316"
       orientation="0,-1"
       id="guide4"
       inkscape:locked="false" />
    <sodipodi:guide
       position="245.23706,340.78918"
       orientation="1,0"
       id="guide5"
       inkscape:locked="false" />
    <sodipodi:guide
       position="718.31983,294.47632"
       orientation="1,0"
       id="guide6"
       inkscape:locked="false" />
    <sodipodi:guide
       position="151.17725,321.67108"
       orientation="1,0"
       id="guide7"
       inkscape:locked="false" />
    <sodipodi:guide
       position="806.62647,286.79504"
       orientation="1,0"
       id="guide8"
       inkscape:locked="false" />
    <sodipodi:guide
       position="113.48279,414.36987"
       orientation="0,-1"
       id="guide9"
       inkscape:locked="false" />
    <sodipodi:guide
       position="113.54053,40.029295"
       orientation="0,-1"
       id="guide10"
       inkscape:locked="false" />
    <sodipodi:guide
       position="314.98926,304.23321"
       orientation="1,0"
       id="guide11"
       inkscape:locked="false" />
    <sodipodi:guide
       position="644.77295,252.18085"
       orientation="1,0"
       id="guide12"
       inkscape:locked="false" />
    <sodipodi:guide
       position="96.901978,114.46631"
       orientation="0,-1"
       id="guide13"
       inkscape:locked="false" />
    <sodipodi:guide
       position="883.92993,304.55505"
       orientation="1,0"
       id="guide14"
       inkscape:locked="false" />
    <inkscape:grid
       id="grid14"
       units="px"
       originx="0"
       originy="0"
       spacingx="1"
       spacingy="1"
       empcolor="#0099e5"
       empopacity="0.30196078"
       color="#0099e5"
       opacity="0.14901961"
       empspacing="5"
       dotted="false"
       gridanglex="30"
       gridanglez="30"
       visible="true" />
    <sodipodi:guide
       position="77,273"
       orientation="1,0"
       id="guide1"
       inkscape:locked="false" />
  </sodipodi:namedview>
  <g
     inkscape:groupmode="layer"
     id="layer1"
     inkscape:label="logo">
    <g
       id="g13"
       transform="matrix(3.7500421,0,0,3.7500768,-35.824994,0.69746178)"
       style="fill:#ffffff"
       inkscape:label="logo">
      <path
         d="M 91.324181,13.443422 C -32.581443,145.10014 56.970358,245.79086 137.55075,245.00587 210.17761,244.29837 312.18295,145.19631 183.27367,31.951377 175.64809,43.020196 152.54948,64.103396 137.54085,73.322404 117.34435,54.218347 100.88089,31.849824 91.324181,13.443422 Z M 88.878896,43.214688 C 108.07875,68.261696 115.73474,75.601906 137.58981,99.034899 150.03877,84.990281 170.37917,71.277714 183.5471,54.626954 267.4498,145.10096 210.39876,225.18846 137.61325,225.21877 56.860931,225.19496 13.817652,145.14851 88.878896,43.214688 Z"
         style="display:inline;stroke:#000000;stroke-width:0.26666244;stroke-linecap:round;stroke-linejoin:round;stroke-dasharray:none;stroke-opacity:1;paint-order:markers stroke fill"
         id="path1" />
      <path
         d="m 179.91225,120.33394 c -0.0777,0.0182 -0.15587,0.0753 -0.23437,0.17396 -7.19216,9.04899 -27.17254,19.64133 -38.62717,24.57606 17.92408,12.05453 39.299,14.65546 40.62506,-7.48631 0.44174,-9.02535 -0.59759,-17.53645 -1.76352,-17.26371 z"
         style="stroke-width:0.498337;fill:#05050e;fill-opacity:0.55000001"
         id="path5" />
      <path
         d="m 95.173617,120.32248 c -1.165929,-0.27275 -2.205261,8.23628 -1.763521,17.26163 1.326057,22.14178 22.700974,19.54084 40.625064,7.4863 -11.45463,-4.93472 -31.435,-15.5255 -38.62717,-24.57449 -0.07845,-0.0987 -0.156643,-0.15524 -0.234373,-0.17344 z"
         style="stroke-width:0.498337;fill:#05050e;fill-opacity:0.55000001"
         id="path4" />
      <path
         d="M 93.451241,81.671713 C 51.04632,159.85227 88.396151,173.43604 137.54866,173.85368 180.1784,174.2159 228.24971,159.84082 179.78725,89.378846 167.70998,104.87214 153.9191,118.03834 137.54293,127.60358 117.16959,114.93008 109.3447,102.94567 93.451241,81.671713 Z m 1.722376,38.650767 c 0.07773,0.0182 0.155924,0.0747 0.234373,0.17344 7.19217,9.04899 27.17254,19.63977 38.62717,24.57449 -17.92409,12.05454 -39.299007,14.65548 -40.625064,-7.4863 -0.44174,-9.02535 0.597592,-17.53438 1.763521,-17.26163 z m 84.738633,0.0115 c 1.16593,-0.27274 2.20526,8.23836 1.76352,17.26371 -1.32606,22.14177 -22.70098,19.54084 -40.62506,7.48631 11.45463,-4.93473 31.43501,-15.52707 38.62717,-24.57606 0.0785,-0.0987 0.15664,-0.15577 0.23437,-0.17396 z"
         style="stroke-width:0.498337"
         id="path3" />
      <path
         d="M 88.878896,43.214688 C 13.817652,145.14851 56.860931,225.19496 137.61325,225.21877 210.39876,225.18846 267.4498,145.10096 183.5471,54.626954 170.37917,71.277714 150.03877,84.990281 137.58981,99.034899 115.73474,75.601906 108.07875,68.261696 88.878896,43.214688 Z m 4.572345,38.457025 C 109.3447,102.94567 117.16959,114.93008 137.54293,127.60358 153.9191,118.03834 167.70998,104.87214 179.78725,89.378846 228.24971,159.84082 180.1784,174.2159 137.54866,173.85368 88.396151,173.43604 51.04632,159.85227 93.451241,81.671713 Z"
         style="stroke-width:0.498337;fill:#05050e;fill-opacity:0.55000001"
         id="path2" />
    </g>
    <rect
       style="fill:none;fill-opacity:0.371578;stroke-width:3.76697"
       id="rect14"
       width="959.99731"
       height="959.99719"
       x="0.0046045012"
       y="0.0039975918"
       ry="0" />
  </g>
</svg>
