<?xml version="1.0" encoding="UTF-8" standalone="no"?>
<svg
   viewBox="0 0 256 256"
   version="1.1"
   id="svg2047"
   sodipodi:docname="raw.svg"
   inkscape:version="1.2.1 (9c6d41e410, 2022-07-14)"
   width="256"
   height="256"
   inkscape:export-filename="icon16.png"
   inkscape:export-xdpi="12"
   inkscape:export-ydpi="12"
   xmlns:inkscape="http://www.inkscape.org/namespaces/inkscape"
   xmlns:sodipodi="http://sodipodi.sourceforge.net/DTD/sodipodi-0.dtd"
   xmlns="http://www.w3.org/2000/svg"
   xmlns:svg="http://www.w3.org/2000/svg">
  <defs
     id="defs2051" />
  <sodipodi:namedview
     id="namedview2049"
     pagecolor="#ffffff"
     bordercolor="#000000"
     borderopacity="0.25"
     inkscape:showpageshadow="2"
     inkscape:pageopacity="0.0"
     inkscape:pagecheckerboard="0"
     inkscape:deskcolor="#d1d1d1"
     showgrid="false"
     inkscape:zoom="1.4183568"
     inkscape:cx="-370.49916"
     inkscape:cy="181.90063"
     inkscape:window-width="2560"
     inkscape:window-height="1377"
     inkscape:window-x="2552"
     inkscape:window-y="-8"
     inkscape:window-maximized="1"
     inkscape:current-layer="svg2047" />
  <path
     d="M 176.75131,24.226545 C 173.70848,36.881729 158.71704,52.014331 149.81855,61.891843 129.62201,42.787748 107.80532,18.832329 98.24859,0.42589155 55.026865,48.385327 16.284821,105.07653 16.284821,140.75741 c 0,63.43822 49.933304,114.8167 111.627349,114.8167 61.69404,0 111.80301,-51.37848 111.80301,-114.8167 0,-26.5115 -26.83448,-83.017741 -62.96387,-116.530865 z M 127.66372,233.1446 c -48.338622,0 -89.197836,-42.29442 -89.197836,-92.38719 0,-22.61451 22.033726,-68.135147 59.832546,-108.450557 4.382,13.911353 20.3486,26.456306 31.85625,37.587124 l 18.67817,21.331778 19.20038,-20.270323 c 2.92772,-3.55064 7.90776,-8.527151 10.95758,-11.9557 23.11782,28.639382 38.61608,66.458018 38.61608,82.006118 0,50.0828 -41.60454,92.13875 -89.94317,92.13875 z m 46.09175,-120.26855 -24.36232,31.38864 c 0,0 -17.41897,-6.15835 -28.66029,-19.14426 C 109.1193,111.70455 103.64771,91.419598 102.12835,89.647018 85.154939,109.84136 72.189345,134.47853 72.098493,153.11615 c -0.14544,29.83638 26.261626,53.58223 57.059507,54.61766 12.57589,0.42281 26.22163,-1.93687 35.69002,-8.53733 33.19794,-26.05916 26.93238,-57.03794 8.90745,-86.32043 z"
     id="path2045"
     sodipodi:nodetypes="cccssscsscccccssccscsscc"
     style="fill:#f2f2f2;stroke-width:0.498337" />
</svg>
